<svg width="24" height="24" viewBox="0 0 24 24" fill="none" xmlns="http://www.w3.org/2000/svg">
<path fill-rule="evenodd" clip-rule="evenodd" d="M4.09399 11.8669C4.15979 11.7367 4.24646 11.5742 4.35522 11.3881C4.65681 10.8719 5.12296 10.1827 5.77701 9.4954C7.07782 8.12841 9.10571 6.77998 12.1 6.77998C15.0951 6.77998 17.1365 8.12914 18.4508 9.49824C19.1113 10.1863 19.5837 10.8763 19.8898 11.3929C19.9988 11.5767 20.086 11.7375 20.1526 11.8669C20.0845 11.9977 19.9951 12.1604 19.8836 12.3466C19.5724 12.8661 19.0939 13.5596 18.4288 14.2511C17.1043 15.6284 15.0623 16.98 12.1 16.98C9.13857 16.98 7.11007 15.6292 5.79892 14.2539C5.14029 13.5631 4.66807 12.8703 4.3615 12.3513C4.25014 12.1628 4.16134 11.9984 4.09399 11.8669ZM21.15 11.87C21.983 11.5293 21.9829 11.5289 21.9827 11.5284L21.9823 11.5275L21.9813 11.5251L21.9787 11.5187L21.9706 11.4995C21.9639 11.4839 21.9547 11.4627 21.9429 11.4363C21.9194 11.3835 21.8855 11.3098 21.8408 11.2181C21.7514 11.0349 21.6185 10.7792 21.4383 10.4752C21.0789 9.8687 20.5263 9.06114 19.7493 8.25173C18.1885 6.62583 15.705 4.97998 12.1 4.97998C8.49435 4.97998 6.02224 6.62655 4.47304 8.25457C3.70209 9.06474 3.15574 9.87302 2.80108 10.48C2.6233 10.7843 2.49239 11.0402 2.40447 11.2236C2.36048 11.3153 2.32715 11.3892 2.30402 11.442C2.29244 11.4685 2.28341 11.4897 2.27686 11.5054L2.26889 11.5246L2.26628 11.531L2.26532 11.5334L2.26493 11.5344C2.26475 11.5348 2.26459 11.5353 3.10002 11.87L2.26493 11.5344C2.17798 11.7514 2.17854 11.9946 2.2671 12.2109L3.10002 11.87C2.2671 12.2109 2.26692 12.2105 2.2671 12.2109L2.26783 12.2127L2.2688 12.2151L2.27144 12.2214L2.27954 12.2406C2.2862 12.2562 2.29539 12.2774 2.30717 12.3038C2.33072 12.3566 2.36464 12.4305 2.40937 12.5223C2.49875 12.7058 2.63169 12.9621 2.81168 13.2668C3.17073 13.8746 3.72226 14.6843 4.49614 15.496C6.04999 17.1258 8.52149 18.78 12.1 18.78C15.6778 18.78 18.1608 17.1266 19.7262 15.4988C20.5061 14.6879 21.0639 13.8789 21.4277 13.2715C21.6101 12.9671 21.745 12.7111 21.8359 12.5277C21.8813 12.436 21.9158 12.3622 21.9398 12.3095C21.9517 12.2831 21.9611 12.2619 21.9679 12.2464L21.9761 12.2273L21.9788 12.2209L21.9798 12.2186L21.9802 12.2176C21.9803 12.2172 21.9805 12.2168 21.15 11.87ZM21.15 11.87L21.9802 12.2176C22.072 11.9978 22.0729 11.7489 21.9827 11.5284L21.15 11.87ZM3.93469 12.2066C3.93453 12.207 3.93456 12.207 3.93469 12.2066V12.2066Z" fill="#151515"/>
<path fill-rule="evenodd" clip-rule="evenodd" d="M12.12 9.82979C10.9934 9.82979 10.08 10.7431 10.08 11.8698C10.08 12.9964 10.9934 13.9098 12.12 13.9098C13.2467 13.9098 14.16 12.9964 14.16 11.8698C14.16 10.7431 13.2467 9.82979 12.12 9.82979ZM8.28003 11.8698C8.28003 9.74901 9.99926 8.02979 12.12 8.02979C14.2408 8.02979 15.96 9.74901 15.96 11.8698C15.96 13.9906 14.2408 15.7098 12.12 15.7098C9.99926 15.7098 8.28003 13.9906 8.28003 11.8698Z" fill="#151515"/>
</svg>
