<svg width="24" height="24" viewBox="0 0 24 24" fill="none" xmlns="http://www.w3.org/2000/svg">
<path fill-rule="evenodd" clip-rule="evenodd" d="M4.27873 7.03766C4.25016 7.06899 4.21998 7.12712 4.21998 7.20996V16.55C4.21998 16.6328 4.25016 16.6909 4.27873 16.7223C4.29278 16.7377 4.30456 16.7447 4.31054 16.7475C4.31559 16.7498 4.31791 16.75 4.31998 16.75H15.32C15.3221 16.75 15.3244 16.7498 15.3294 16.7475C15.3354 16.7447 15.3472 16.7377 15.3612 16.7223C15.3898 16.6909 15.42 16.6328 15.42 16.55V7.20996C15.42 7.12712 15.3898 7.06899 15.3612 7.03766C15.3472 7.02225 15.3354 7.01521 15.3294 7.01244C15.3244 7.01009 15.3221 7.00996 15.32 7.00996H4.31998C4.31791 7.00996 4.31559 7.01009 4.31054 7.01244C4.30456 7.01521 4.29278 7.02225 4.27873 7.03766ZM2.41998 7.20996C2.41998 6.18277 3.19665 5.20996 4.31998 5.20996H15.32C16.4433 5.20996 17.22 6.18277 17.22 7.20996V16.55C17.22 17.5772 16.4433 18.55 15.32 18.55H4.31998C3.19665 18.55 2.41998 17.5772 2.41998 16.55V7.20996Z" fill="#151515"/>
<path fill-rule="evenodd" clip-rule="evenodd" d="M20.4334 7.08084C21.5148 7.11703 22.23 8.07636 22.23 9.04978V14.7598C22.23 14.9484 22.1944 15.1202 22.1773 15.203C22.1755 15.2118 22.1738 15.2196 22.1725 15.2263L22.1668 15.2547L22.1593 15.2826C21.8997 16.2519 20.9094 16.977 19.8306 16.6385L19.8271 16.6374L16.7499 15.6583C15.8987 15.3928 15.42 14.5803 15.42 13.7698V10.0398C15.42 9.23329 15.8946 8.4211 16.7345 8.15297L20.336 6.98364L20.4334 7.08084ZM20.3638 8.88051L19.8573 9.04934L19.8439 9.03592L17.2838 9.86714C17.2807 9.86903 17.2714 9.87584 17.2593 9.89395C17.2395 9.92352 17.22 9.97357 17.22 10.0398V13.7698C17.22 13.8359 17.2394 13.8843 17.2582 13.9121C17.2673 13.9256 17.2752 13.9329 17.2797 13.9363C17.2837 13.9393 17.2856 13.9399 17.286 13.94L17.2929 13.9421L20.3591 14.9178C20.371 14.9099 20.3976 14.8862 20.4152 14.8347C20.4173 14.8242 20.4192 14.8149 20.4213 14.8043C20.4249 14.7857 20.427 14.7735 20.4285 14.7645C20.4293 14.7595 20.4297 14.7561 20.43 14.7541V9.04978C20.43 8.9732 20.4021 8.92055 20.3787 8.8944C20.3722 8.88714 20.3672 8.88289 20.3638 8.88051ZM17.2849 9.86654C17.2849 9.86655 17.2854 9.86632 17.2849 9.86654V9.86654Z" fill="#151515"/>
</svg>
