<svg width="24" height="24" viewBox="0 0 24 24" fill="none" xmlns="http://www.w3.org/2000/svg">
<path fill-rule="evenodd" clip-rule="evenodd" d="M14.69 3.057C14.522 2.88709 14.2933 2.79096 14.0544 2.78981C13.8155 2.78865 13.5859 2.88255 13.4162 3.05082L2.29622 14.0808C1.94657 14.4276 1.94061 14.9911 2.28286 15.3452L6.31286 19.5152C6.48244 19.6907 6.71601 19.7898 6.96003 19.7898H13.07C13.3095 19.7898 13.5391 19.6944 13.708 19.5246L16.5064 16.7123C16.6069 16.6675 16.7009 16.6034 16.7826 16.5201C16.8611 16.4401 16.9215 16.3491 16.9641 16.2523L21.738 11.4546C22.0866 11.1043 22.0875 10.5384 21.74 10.187L14.69 3.057ZM16.0891 14.5797L19.8324 10.8178L14.0438 4.96358L10.1849 8.7913L16.0891 14.5797ZM8.90682 10.059L4.19455 14.7332L7.34185 17.9898H12.6959L14.8194 15.8557L8.90682 10.059Z" fill="#151515"/>
</svg>
