<svg width="24" height="24" viewBox="0 0 24 24" fill="none" xmlns="http://www.w3.org/2000/svg">
<path d="M12.07 16.4099V10.9099H10.66" stroke="#151515" stroke-width="1.8" stroke-linecap="round" stroke-linejoin="round"/>
<path d="M12.03 8.65991C12.7204 8.65991 13.28 8.10027 13.28 7.40991C13.28 6.71956 12.7204 6.15991 12.03 6.15991C11.3397 6.15991 10.78 6.71956 10.78 7.40991C10.78 8.10027 11.3397 8.65991 12.03 8.65991Z" fill="#151515"/>
<path d="M9.83002 16.4099H14.31" stroke="#151515" stroke-width="1.8" stroke-miterlimit="10" stroke-linecap="round"/>
<path d="M12.07 20.9099C17.0406 20.9099 21.07 16.8805 21.07 11.9099C21.07 6.93935 17.0406 2.90991 12.07 2.90991C7.09944 2.90991 3.07001 6.93935 3.07001 11.9099C3.07001 16.8805 7.09944 20.9099 12.07 20.9099Z" stroke="#151515" stroke-width="1.8" stroke-miterlimit="10"/>
</svg>
