<svg width="24" height="24" viewBox="0 0 24 24" fill="none" xmlns="http://www.w3.org/2000/svg">
<path d="M18.21 7.28006C19.3035 7.28006 20.19 6.39359 20.19 5.30006C20.19 4.20654 19.3035 3.32007 18.21 3.32007C17.1165 3.32007 16.23 4.20654 16.23 5.30006C16.23 6.39359 17.1165 7.28006 18.21 7.28006Z" stroke="#151515" stroke-width="1.8" stroke-linecap="round" stroke-linejoin="round"/>
<path d="M18.21 20.7801C19.3035 20.7801 20.19 19.8936 20.19 18.8001C20.19 17.7065 19.3035 16.8201 18.21 16.8201C17.1165 16.8201 16.23 17.7065 16.23 18.8001C16.23 19.8936 17.1165 20.7801 18.21 20.7801Z" stroke="#151515" stroke-width="1.8" stroke-linecap="round" stroke-linejoin="round"/>
<path d="M6.20999 14.0201C7.30352 14.0201 8.18999 13.1336 8.18999 12.0401C8.18999 10.9465 7.30352 10.0601 6.20999 10.0601C5.11647 10.0601 4.22998 10.9465 4.22998 12.0401C4.22998 13.1336 5.11647 14.0201 6.20999 14.0201Z" stroke="#151515" stroke-width="1.8" stroke-linecap="round" stroke-linejoin="round"/>
<path d="M16.37 6L7.80005 10.85" stroke="#151515" stroke-width="1.8" stroke-linecap="round" stroke-linejoin="round"/>
<path d="M16.37 18.08L7.80005 13.23" stroke="#151515" stroke-width="1.8" stroke-linecap="round" stroke-linejoin="round"/>
</svg>
