<svg width="24" height="24" viewBox="0 0 24 24" fill="none" xmlns="http://www.w3.org/2000/svg">
<mask id="mask0_1277_54350" style="mask-type:luminance" maskUnits="userSpaceOnUse" x="3" y="2" width="19" height="19">
<path d="M13.63 2.73999C14.05 2.73999 14.44 2.95998 14.64 3.30998L15.68 5.13998C15.92 5.25998 16.15 5.38998 16.38 5.52998L18.55 5.47998C18.97 5.47998 19.36 5.67998 19.57 6.02998L21.02 8.44998C21.23 8.79998 21.22 9.22999 21.01 9.56999L19.88 11.35C19.88 11.48 19.89 11.6 19.89 11.73C19.89 11.86 19.89 11.99 19.88 12.12L21.01 13.9C21.23 14.24 21.23 14.68 21.02 15.02L19.57 17.44C19.36 17.79 18.97 18 18.55 17.99L16.38 17.94C16.15 18.08 15.92 18.21 15.68 18.33L14.64 20.16C14.44 20.51 14.05 20.73 13.63 20.73H10.72C10.3 20.73 9.90999 20.51 9.70999 20.16L8.66998 18.33C8.42998 18.21 8.19998 18.08 7.96998 17.94L5.79998 17.99C5.37998 17.99 4.98998 17.79 4.77998 17.44L3.32998 15.02C3.11998 14.67 3.12998 14.24 3.33998 13.9L4.46998 12.12C4.46998 11.99 4.45999 11.86 4.45999 11.74C4.45999 11.62 4.45998 11.48 4.46998 11.35L3.33998 9.56999C3.11998 9.22999 3.11998 8.78998 3.32998 8.44998L4.77998 6.02998C4.98998 5.67998 5.37998 5.46998 5.79998 5.47998L7.96998 5.52998C8.19998 5.38998 8.42998 5.25998 8.66998 5.13998L9.70999 3.30998C9.90999 2.95998 10.3 2.73999 10.72 2.73999H13.63Z" fill="white"/>
</mask>
<g mask="url(#mask0_1277_54350)">
<mask id="mask1_1277_54350" style="mask-type:luminance" maskUnits="userSpaceOnUse" x="2" y="2" width="20" height="20">
<path d="M21.63 2.29004H2.72998V21.19H21.63V2.29004Z" fill="white"/>
</mask>
<g mask="url(#mask1_1277_54350)">
<path d="M13.63 2.73999C14.05 2.73999 14.44 2.95998 14.64 3.30998L15.68 5.13998C15.92 5.25998 16.15 5.38998 16.38 5.52998L18.55 5.47998C18.97 5.47998 19.36 5.67998 19.57 6.02998L21.02 8.44998C21.23 8.79998 21.22 9.22999 21.01 9.56999L19.88 11.35C19.88 11.48 19.89 11.6 19.89 11.73C19.89 11.86 19.89 11.99 19.88 12.12L21.01 13.9C21.23 14.24 21.23 14.68 21.02 15.02L19.57 17.44C19.36 17.79 18.97 18 18.55 17.99L16.38 17.94C16.15 18.08 15.92 18.21 15.68 18.33L14.64 20.16C14.44 20.51 14.05 20.73 13.63 20.73H10.72C10.3 20.73 9.90999 20.51 9.70999 20.16L8.66998 18.33C8.42998 18.21 8.19998 18.08 7.96998 17.94L5.79998 17.99C5.37998 17.99 4.98998 17.79 4.77998 17.44L3.32998 15.02C3.11998 14.67 3.12998 14.24 3.33998 13.9L4.46998 12.12C4.46998 11.99 4.45999 11.86 4.45999 11.74C4.45999 11.62 4.45998 11.48 4.46998 11.35L3.33998 9.56999C3.11998 9.22999 3.11998 8.78998 3.32998 8.44998L4.77998 6.02998C4.98998 5.67998 5.37998 5.46998 5.79998 5.47998L7.96998 5.52998C8.19998 5.38998 8.42998 5.25998 8.66998 5.13998L9.70999 3.30998C9.90999 2.95998 10.3 2.73999 10.72 2.73999H13.63Z" stroke="#151515" stroke-width="2" stroke-miterlimit="10"/>
</g>
<path d="M21.63 2.29004H2.72998V21.19H21.63V2.29004Z" stroke="#151515" stroke-width="2" stroke-miterlimit="10"/>
</g>
<path fill-rule="evenodd" clip-rule="evenodd" d="M13.63 2.73999C14.05 2.73999 14.44 2.95998 14.64 3.30998L15.68 5.13998C15.92 5.25998 16.15 5.38998 16.38 5.52998L18.55 5.47998C18.97 5.47998 19.36 5.67998 19.57 6.02998L21.02 8.44998C21.23 8.79998 21.22 9.22999 21.01 9.56999L19.88 11.35C19.88 11.48 19.89 11.6 19.89 11.73C19.89 11.86 19.89 11.99 19.88 12.12L21.01 13.9C21.23 14.24 21.23 14.68 21.02 15.02L19.57 17.44C19.36 17.79 18.97 18 18.55 17.99L16.38 17.94C16.15 18.08 15.92 18.21 15.68 18.33L14.64 20.16C14.44 20.51 14.05 20.73 13.63 20.73H10.72C10.3 20.73 9.90999 20.51 9.70999 20.16L8.66998 18.33C8.42998 18.21 8.19998 18.08 7.96998 17.94L5.79998 17.99C5.37998 17.99 4.98998 17.79 4.77998 17.44L3.32998 15.02C3.11998 14.67 3.12998 14.24 3.33998 13.9L4.46998 12.12C4.46998 11.99 4.45999 11.86 4.45999 11.74C4.45999 11.62 4.45998 11.48 4.46998 11.35L3.33998 9.56999C3.11998 9.22999 3.11998 8.78998 3.32998 8.44998L4.77998 6.02998C4.98998 5.67998 5.37998 5.46998 5.79998 5.47998L7.96998 5.52998C8.19998 5.38998 8.42998 5.25998 8.66998 5.13998L9.70999 3.30998C9.90999 2.95998 10.3 2.73999 10.72 2.73999H13.63Z" stroke="#151515" stroke-width="1.8" stroke-miterlimit="10"/>
<path d="M12.18 14.2C13.5386 14.2 14.64 13.0987 14.64 11.74C14.64 10.3814 13.5386 9.28003 12.18 9.28003C10.8213 9.28003 9.71997 10.3814 9.71997 11.74C9.71997 13.0987 10.8213 14.2 12.18 14.2Z" stroke="#151515" stroke-width="1.8" stroke-miterlimit="10"/>
</svg>
