<svg width="24" height="24" viewBox="0 0 24 24" fill="none" xmlns="http://www.w3.org/2000/svg">
<path d="M11.2562 10.1915L11.9934 10.9831L12.7248 10.1861C13.4033 9.44665 14.951 8.81946 17.0998 8.53018C18.7027 8.3144 20.2948 8.28083 21.4746 8.47557C22.0693 8.57372 22.4888 8.71886 22.745 8.87443C22.9823 9.01853 22.995 9.11317 22.9981 9.13613L22.9982 9.13701C23.0084 9.21192 22.983 9.47439 22.7058 9.93151C22.4462 10.3595 22.0319 10.8463 21.4921 11.3209C20.4028 12.2785 18.9416 13.0664 17.5283 13.2567C15.3552 13.5492 13.5214 12.7121 12.7295 11.8367L11.982 11.0105L11.2411 11.8427C10.4523 12.7286 8.66537 13.5781 6.49913 13.3127C5.09506 13.1407 3.63403 12.3468 2.53584 11.3696C1.9925 10.8862 1.57238 10.3877 1.30686 9.94863C1.02287 9.47899 0.991548 9.20543 1.0015 9.12506C1.00157 9.1245 1.00164 9.12385 1.00172 9.12313C1.00394 9.10264 1.01288 9.02005 1.23136 8.88962C1.47819 8.74226 1.88926 8.60485 2.48235 8.51403C3.6581 8.33398 5.25031 8.37952 6.87069 8.57803C9.02913 8.84246 10.5711 9.456 11.2562 10.1915ZM12.7193 15.1687C12.8014 15.1737 12.8704 15.1801 12.9282 15.1873C12.8937 15.2472 12.8405 15.3148 12.7602 15.3839C12.5828 15.5364 12.3153 15.6526 11.9931 15.6526C11.6703 15.6526 11.3991 15.536 11.2182 15.3816C11.1382 15.3133 11.0849 15.2468 11.0501 15.188C11.1096 15.1805 11.1807 15.1739 11.2654 15.1687C11.4713 15.1563 11.7079 15.155 11.9933 15.155C12.2788 15.155 12.5146 15.1563 12.7193 15.1687Z" fill="#292929" stroke="#292929" stroke-width="2"/>
</svg>
