<svg width="24" height="24" viewBox="0 0 24 24" fill="none" xmlns="http://www.w3.org/2000/svg">
<path fill-rule="evenodd" clip-rule="evenodd" d="M9.47997 3.04004C9.25058 3.04004 9.02984 3.12763 8.86286 3.28492L6.19284 5.80004H3.17997C2.68291 5.80004 2.27997 6.20299 2.27997 6.70004V20.1C2.27997 20.5971 2.68291 21 3.17997 21H21.13C21.627 21 22.03 20.5971 22.03 20.1V6.70004C22.03 6.20299 21.627 5.80004 21.13 5.80004H18.2036L15.4926 3.28076C15.3261 3.12604 15.1073 3.04004 14.88 3.04004H9.47997ZM7.16709 7.35516L9.83711 4.84004H14.5264L17.2373 7.35932C17.4038 7.51404 17.6227 7.60004 17.85 7.60004H20.23V19.2H4.07997V7.60004H6.54998C6.77937 7.60004 7.00011 7.51245 7.16709 7.35516ZM9.39003 12.6001C9.39003 11.0868 10.6168 9.86006 12.13 9.86006C13.6433 9.86006 14.87 11.0868 14.87 12.6001C14.87 14.1133 13.6433 15.3401 12.13 15.3401C10.6168 15.3401 9.39003 14.1133 9.39003 12.6001ZM12.13 8.06006C9.62265 8.06006 7.59003 10.0927 7.59003 12.6001C7.59003 15.1074 9.62265 17.1401 12.13 17.1401C14.6374 17.1401 16.67 15.1074 16.67 12.6001C16.67 10.0927 14.6374 8.06006 12.13 8.06006Z" fill="#151515"/>
</svg>
