<svg width="24" height="24" viewBox="0 0 24 24" fill="none" xmlns="http://www.w3.org/2000/svg">
<path fill-rule="evenodd" clip-rule="evenodd" d="M8.89998 7.94004C8.89998 6.22796 10.2879 4.84004 12 4.84004C13.7121 4.84004 15.1 6.22796 15.1 7.94004C15.1 9.65212 13.7121 11.04 12 11.04C10.2879 11.04 8.89998 9.65212 8.89998 7.94004ZM12 3.04004C9.29378 3.04004 7.09998 5.23384 7.09998 7.94004C7.09998 10.6462 9.29378 12.84 12 12.84C14.7062 12.84 16.9 10.6462 16.9 7.94004C16.9 5.23384 14.7062 3.04004 12 3.04004ZM7.99998 14.0701C5.29292 14.0701 3.09998 16.263 3.09998 18.9701V19.9501C3.09998 20.4471 3.50292 20.8501 3.99998 20.8501C4.49703 20.8501 4.89998 20.4471 4.89998 19.9501V18.9701C4.89998 17.2571 6.28703 15.8701 7.99998 15.8701H13C13.497 15.8701 13.9 15.4671 13.9 14.9701C13.9 14.473 13.497 14.0701 13 14.0701H7.99998ZM16.0436 14.7236C16.395 14.3721 16.9649 14.3721 17.3164 14.7236L18.84 16.2472L20.3636 14.7236C20.7151 14.3721 21.2849 14.3721 21.6364 14.7236C21.9878 15.075 21.9878 15.6449 21.6364 15.9964L20.1128 17.52L21.6364 19.0436C21.9878 19.395 21.9878 19.9649 21.6364 20.3164C21.2849 20.6678 20.7151 20.6678 20.3636 20.3164L18.84 18.7928L17.3164 20.3164C16.9649 20.6678 16.395 20.6678 16.0436 20.3164C15.6921 19.9649 15.6921 19.395 16.0436 19.0436L17.5672 17.52L16.0436 15.9964C15.6921 15.6449 15.6921 15.075 16.0436 14.7236Z" fill="#151515"/>
</svg>
