<svg width="24" height="24" viewBox="0 0 24 24" fill="none" xmlns="http://www.w3.org/2000/svg">
<path fill-rule="evenodd" clip-rule="evenodd" d="M12 4.84004C10.2879 4.84004 8.89998 6.22796 8.89998 7.94004C8.89998 9.65212 10.2879 11.04 12 11.04C13.7121 11.04 15.1 9.65212 15.1 7.94004C15.1 6.22796 13.7121 4.84004 12 4.84004ZM7.09998 7.94004C7.09998 5.23384 9.29378 3.04004 12 3.04004C14.7062 3.04004 16.9 5.23384 16.9 7.94004C16.9 10.6462 14.7062 12.84 12 12.84C9.29378 12.84 7.09998 10.6462 7.09998 7.94004ZM3.09998 18.9701C3.09998 16.263 5.29292 14.0701 7.99998 14.0701H14C14.497 14.0701 14.9 14.473 14.9 14.9701C14.9 15.4671 14.497 15.8701 14 15.8701H7.99998C6.28703 15.8701 4.89998 17.2571 4.89998 18.9701V19.9501C4.89998 20.4471 4.49703 20.8501 3.99998 20.8501C3.50292 20.8501 3.09998 20.4471 3.09998 19.9501V18.9701ZM16 16.45C15.5029 16.45 15.1 16.8529 15.1 17.35C15.1 17.847 15.5029 18.25 16 18.25H21.2C21.697 18.25 22.1 17.847 22.1 17.35C22.1 16.8529 21.697 16.45 21.2 16.45H16Z" fill="#151515"/>
</svg>
