<svg width="24" height="24" viewBox="0 0 24 24" fill="none" xmlns="http://www.w3.org/2000/svg">
<path d="M21.14 12.0501C21.14 13.6701 21.12 17.4501 21.1 19.5601C21.1 20.3801 20.43 21.0401 19.61 21.0401C17.58 21.0401 13.99 21.0401 12.14 21.0401C7.08003 21.0401 3.00003 16.8701 3.14003 11.7801C3.27003 7.08012 7.18004 3.17012 11.88 3.04012C16.97 2.90012 21.14 6.98012 21.14 12.0401V12.0501Z" stroke="#151515" stroke-width="1.8" stroke-linejoin="round"/>
<path d="M7.57001 10.6301H7.56001C6.77577 10.6301 6.14001 11.2659 6.14001 12.0501V12.0601C6.14001 12.8444 6.77577 13.4801 7.56001 13.4801H7.57001C8.35426 13.4801 8.99002 12.8444 8.99002 12.0601V12.0501C8.99002 11.2659 8.35426 10.6301 7.57001 10.6301Z" fill="#151515"/>
<path d="M16.72 10.6301H16.7101C15.9258 10.6301 15.29 11.2659 15.29 12.0501V12.0601C15.29 12.8444 15.9258 13.4801 16.7101 13.4801H16.72C17.5043 13.4801 18.14 12.8444 18.14 12.0601V12.0501C18.14 11.2659 17.5043 10.6301 16.72 10.6301Z" fill="#151515"/>
<path d="M12.15 10.6301H12.14C11.3558 10.6301 10.72 11.2659 10.72 12.0501V12.0601C10.72 12.8444 11.3558 13.4801 12.14 13.4801H12.15C12.9343 13.4801 13.57 12.8444 13.57 12.0601V12.0501C13.57 11.2659 12.9343 10.6301 12.15 10.6301Z" fill="#151515"/>
</svg>
