<svg width="24" height="24" viewBox="0 0 24 24" fill="none" xmlns="http://www.w3.org/2000/svg">
<path d="M12 4.71997C3.95999 4.71997 2.04999 4.71997 2.04999 11.99C2.04999 19.26 4.15999 19.26 12 19.26C19.84 19.26 21.95 19.26 21.95 11.99C21.95 4.71997 20.04 4.71997 12 4.71997ZM12 17.45C4.15999 17.45 3.84999 17.45 3.84999 11.98C3.84999 6.50997 3.99999 6.50997 12 6.50997C20 6.50997 20.15 6.50997 20.15 11.98C20.15 17.45 20 17.45 12 17.45Z" fill="#151515"/>
<path d="M11.15 9.71995C10.72 9.46995 10.18 9.77995 10.18 10.2799V13.7199C10.18 14.2199 10.72 14.5299 11.15 14.2799L14.13 12.5599C14.56 12.3099 14.56 11.6899 14.13 11.4399L11.15 9.71995Z" fill="#151515"/>
</svg>
