<svg width="24" height="24" viewBox="0 0 24 24" fill="none" xmlns="http://www.w3.org/2000/svg">
<path d="M11.95 2.87012C4.28002 2.87012 2.83002 4.32012 2.83002 11.9901C2.83002 19.6601 4.28002 21.1101 11.95 21.1101C19.62 21.1101 21.07 19.7501 21.07 11.9901C21.07 4.23012 19.71 2.87012 11.95 2.87012ZM11.95 19.3101C5.25002 19.3101 4.63002 18.6901 4.63002 11.9901C4.63002 5.29012 5.31002 4.67012 11.95 4.67012C18.59 4.67012 19.27 5.29012 19.27 11.9901C19.27 18.6901 18.72 19.3101 11.95 19.3101Z" fill="#151515"/>
<path d="M12 7.21997C9.35997 7.21997 7.21997 9.36997 7.21997 12C7.21997 14.63 9.36997 16.78 12 16.78C14.63 16.78 16.78 14.63 16.78 12C16.78 9.36997 14.63 7.21997 12 7.21997ZM12 14.99C10.36 14.99 9.01997 13.65 9.01997 12.01C9.01997 10.37 10.36 9.02997 12 9.02997C13.64 9.02997 14.98 10.37 14.98 12.01C14.98 13.65 13.64 14.99 12 14.99Z" fill="#151515"/>
<path d="M16.8 6.12012C16.2 6.12012 15.72 6.60012 15.72 7.20012C15.72 7.80012 16.2 8.28012 16.8 8.28012C17.4 8.28012 17.88 7.80012 17.88 7.20012C17.88 6.60012 17.4 6.12012 16.8 6.12012Z" fill="#151515"/>
</svg>
