<svg width="24" height="24" viewBox="0 0 24 24" fill="none" xmlns="http://www.w3.org/2000/svg">
<path d="M12.01 4.83008H12C11.2158 4.83008 10.58 5.46585 10.58 6.25009V6.2601C10.58 7.04435 11.2158 7.68008 12 7.68008H12.01C12.7943 7.68008 13.43 7.04435 13.43 6.2601V6.25009C13.43 5.46585 12.7943 4.83008 12.01 4.83008Z" fill="#151515"/>
<path d="M12.01 15.98H12C11.2158 15.98 10.58 16.6157 10.58 17.4V17.41C10.58 18.1942 11.2158 18.83 12 18.83H12.01C12.7943 18.83 13.43 18.1942 13.43 17.41V17.4C13.43 16.6157 12.7943 15.98 12.01 15.98Z" fill="#151515"/>
<path d="M12.01 10.4001H12C11.2158 10.4001 10.58 11.0359 10.58 11.8202V11.8301C10.58 12.6144 11.2158 13.2502 12 13.2502H12.01C12.7943 13.2502 13.43 12.6144 13.43 11.8301V11.8202C13.43 11.0359 12.7943 10.4001 12.01 10.4001Z" fill="#151515"/>
</svg>
