<svg width="24" height="24" viewBox="0 0 24 24" fill="none" xmlns="http://www.w3.org/2000/svg">
<path fill-rule="evenodd" clip-rule="evenodd" d="M5.20996 3.88999C5.20996 3.39293 5.6129 2.98999 6.10996 2.98999H18.11C18.607 2.98999 19.01 3.39293 19.01 3.88999V19.89C19.01 20.1947 18.8558 20.4788 18.6002 20.6447C18.3447 20.8107 18.0225 20.8361 17.7441 20.7122L12.11 18.2051L6.47587 20.7122C6.19746 20.8361 5.87527 20.8107 5.61971 20.6447C5.36416 20.4788 5.20996 20.1947 5.20996 19.89V3.88999ZM7.00996 4.78999V18.5044L11.7441 16.3977C11.977 16.2941 12.2429 16.2941 12.4759 16.3977L17.21 18.5044V4.78999H7.00996Z" fill="#151515"/>
</svg>
