<svg width="24" height="24" viewBox="0 0 24 24" fill="none" xmlns="http://www.w3.org/2000/svg">
<path d="M19.61 7.90991H4.60997C4.22337 7.90991 3.90997 8.22331 3.90997 8.60991V11.2099C3.90997 11.5965 4.22337 11.9099 4.60997 11.9099H19.61C19.9966 11.9099 20.31 11.5965 20.31 11.2099V8.60991C20.31 8.22331 19.9966 7.90991 19.61 7.90991Z" stroke="#151515" stroke-width="1.8" stroke-linecap="round" stroke-linejoin="round"/>
<path d="M5.14999 11.9099H19.07C19.07 11.9099 19.11 11.9299 19.11 11.9499V19.0999C19.11 19.6499 18.66 20.0999 18.11 20.0999H6.12C5.57 20.0999 5.12 19.6499 5.12 19.0999V11.9499C5.12 11.9499 5.14 11.9099 5.16 11.9099H5.14999Z" stroke="#151515" stroke-width="1.8" stroke-linecap="round" stroke-linejoin="round"/>
<path d="M12.11 7.53979V20.1098" stroke="#151515" stroke-width="1.8" stroke-linecap="round" stroke-linejoin="round"/>
<path d="M12.06 6.03994V7.86994C12.06 7.86994 12.04 7.90995 12.02 7.90995H10.19C8.92998 7.90995 7.80998 6.86994 7.94998 5.61994C8.05998 4.65994 8.80998 3.89995 9.76998 3.79995C11.02 3.65995 12.06 4.77994 12.06 6.03994Z" stroke="#151515" stroke-width="1.8" stroke-linecap="round" stroke-linejoin="round"/>
<path d="M12.11 6.03994V7.86994C12.11 7.86994 12.13 7.90995 12.15 7.90995H13.98C15.24 7.90995 16.36 6.86994 16.22 5.61994C16.11 4.65994 15.36 3.89995 14.4 3.79995C13.15 3.65995 12.11 4.77994 12.11 6.03994Z" stroke="#151515" stroke-width="1.8" stroke-linecap="round" stroke-linejoin="round"/>
</svg>
