<svg width="24" height="24" viewBox="0 0 24 24" fill="none" xmlns="http://www.w3.org/2000/svg">
<path d="M16.29 9.91023V7.17023C16.29 4.86023 14.42 2.99023 12.11 2.99023C10.04 2.99023 8.32999 4.49024 7.98999 6.46024" stroke="#151515" stroke-width="1.8" stroke-miterlimit="10" stroke-linecap="round"/>
<path d="M6.14996 9.91016H18.07C18.49 9.91016 18.83 10.2502 18.83 10.6702V19.4601C18.83 19.8801 18.49 20.2202 18.07 20.2202H6.14996C5.72996 20.2202 5.38995 19.8801 5.38995 19.4601V10.6702C5.38995 10.2502 5.72996 9.91016 6.14996 9.91016Z" stroke="#151515" stroke-width="1.8" stroke-linecap="round" stroke-linejoin="round"/>
<path fill-rule="evenodd" clip-rule="evenodd" d="M13.64 15.07C13.64 15.92 12.96 16.6 12.11 16.6C11.26 16.6 10.58 15.92 10.58 15.07C10.58 14.22 11.26 13.54 12.11 13.54C12.96 13.54 13.64 14.22 13.64 15.07Z" fill="#151515"/>
</svg>
