<svg width="24" height="24" viewBox="0 0 24 24" fill="none" xmlns="http://www.w3.org/2000/svg">
<path d="M11.5 15.6701C13.6705 15.6701 15.43 13.9105 15.43 11.7401C15.43 9.56959 13.6705 7.81006 11.5 7.81006C9.32953 7.81006 7.57001 9.56959 7.57001 11.7401C7.57001 13.9105 9.32953 15.6701 11.5 15.6701Z" stroke="#151515" stroke-width="1.8" stroke-linecap="round" stroke-linejoin="round"/>
<path d="M15.43 7.58989V13.0899C15.43 13.7399 15.86 15.7399 18.36 15.7399C20.86 15.7399 20.96 13.2099 20.96 13.2099V11.7299C20.96 8.73989 18.53 2.63989 12 2.63989C5.47001 2.63989 3.01001 8.01989 3.01001 11.7299C3.01001 15.4399 6.16001 20.7399 11.96 20.7399H16.34" stroke="#151515" stroke-width="1.8" stroke-linecap="round" stroke-linejoin="round"/>
</svg>
