<svg width="24" height="24" viewBox="0 0 24 24" fill="none" xmlns="http://www.w3.org/2000/svg">
<path d="M6.18005 9.91016H18.1001C18.5201 9.91016 18.86 10.2502 18.86 10.6702V19.4601C18.86 19.8801 18.5201 20.2202 18.1001 20.2202H6.18005C5.76005 20.2202 5.42004 19.8801 5.42004 19.4601V10.6702C5.42004 10.2502 5.76005 9.91016 6.18005 9.91016Z" stroke="#151515" stroke-width="1.8" stroke-linecap="round" stroke-linejoin="round"/>
<path fill-rule="evenodd" clip-rule="evenodd" d="M13.67 15.07C13.67 15.92 12.99 16.6 12.14 16.6C11.29 16.6 10.61 15.92 10.61 15.07C10.61 14.22 11.29 13.54 12.14 13.54C12.99 13.54 13.67 14.22 13.67 15.07Z" fill="#151515"/>
<path d="M7.97003 9.91023V7.17023C7.97003 4.86023 9.84002 2.99023 12.15 2.99023C14.46 2.99023 16.33 4.86023 16.33 7.17023V9.91023" stroke="#151515" stroke-width="1.8" stroke-linecap="round" stroke-linejoin="round"/>
</svg>
