<svg width="24" height="24" viewBox="0 0 24 24" fill="none" xmlns="http://www.w3.org/2000/svg">
<path fill-rule="evenodd" clip-rule="evenodd" d="M8.89998 7.81992C8.89998 6.10784 10.2879 4.71992 12 4.71992C13.7121 4.71992 15.1 6.10784 15.1 7.81992C15.1 9.532 13.7121 10.9199 12 10.9199C10.2879 10.9199 8.89998 9.532 8.89998 7.81992ZM12 2.91992C9.29378 2.91992 7.09998 5.11373 7.09998 7.81992C7.09998 10.5261 9.29378 12.7199 12 12.7199C14.7062 12.7199 16.9 10.5261 16.9 7.81992C16.9 5.11372 14.7062 2.91992 12 2.91992ZM7.99998 13.95C5.29292 13.95 3.09998 16.1429 3.09998 18.85V19.83C3.09998 20.327 3.50292 20.73 3.99998 20.73C4.49703 20.73 4.89998 20.327 4.89998 19.83V18.85C4.89998 17.137 6.28703 15.75 7.99998 15.75H13C13.497 15.75 13.9 15.347 13.9 14.85C13.9 14.3529 13.497 13.95 13 13.95H7.99998ZM17.65 15.54C17.0536 15.54 16.57 16.0235 16.57 16.62C16.57 17.2165 17.0535 17.7 17.65 17.7C17.9434 17.7 18.2095 17.583 18.4041 17.3931C18.4073 17.3899 18.4104 17.3867 18.4136 17.3835C18.4168 17.3803 18.42 17.3772 18.4232 17.374C18.6131 17.1794 18.73 16.9134 18.73 16.62C18.73 16.0235 18.2465 15.54 17.65 15.54ZM20.2214 17.9185C20.4188 17.5283 20.53 17.0871 20.53 16.62C20.53 15.0294 19.2406 13.74 17.65 13.74C16.0594 13.74 14.77 15.0294 14.77 16.62C14.77 18.2106 16.0594 19.5 17.65 19.5C18.1172 19.5 18.5584 19.3887 18.9486 19.1913L20.3136 20.5563C20.6651 20.9077 21.2349 20.9077 21.5864 20.5563C21.9379 20.2048 21.9379 19.635 21.5864 19.2835L20.2214 17.9185Z" fill="#151515"/>
</svg>
