<svg width="24" height="24" viewBox="0 0 24 24" fill="none" xmlns="http://www.w3.org/2000/svg">
<path d="M13.38 3.88991L14.96 7.07991C15.18 7.52991 15.62 7.84991 16.12 7.91991L19.64 8.42989C20.9 8.60989 21.4 10.1599 20.49 11.0499L17.94 13.5399C17.58 13.8899 17.41 14.3999 17.5 14.8999L18.1 18.4099C18.32 19.6699 17 20.6199 15.87 20.0299L12.72 18.3699C12.27 18.1299 11.74 18.1299 11.29 18.3699L8.14002 20.0299C7.01002 20.6199 5.69001 19.6699 5.91001 18.4099L6.51001 14.8999C6.60001 14.3999 6.43001 13.8899 6.07001 13.5399L3.52001 11.0499C2.61001 10.1599 3.11001 8.60989 4.37001 8.42989L7.89002 7.91991C8.39002 7.84991 8.82 7.52991 9.05 7.07991L10.63 3.88991C11.19 2.74991 12.82 2.74991 13.39 3.88991H13.38Z" fill="#88B9FF" stroke="#151515" stroke-width="1.8" stroke-miterlimit="10"/>
<path d="M12.51 9.15997L13.09 10.33C13.17 10.5 13.33 10.61 13.51 10.64L14.8 10.83C15.26 10.9 15.45 11.47 15.11 11.79L14.17 12.7C14.04 12.83 13.98 13.02 14.01 13.2L14.23 14.49C14.31 14.95 13.83 15.3 13.41 15.08L12.25 14.47C12.09 14.38 11.89 14.38 11.72 14.47L10.56 15.08C10.15 15.3 9.65998 14.95 9.73998 14.49L9.95998 13.2C9.98998 13.02 9.92998 12.83 9.79998 12.7L8.85998 11.79C8.52998 11.46 8.70999 10.89 9.16999 10.83L10.46 10.64C10.64 10.61 10.8 10.5 10.88 10.33L11.46 9.15997C11.67 8.73997 12.27 8.73997 12.47 9.15997H12.51Z" fill="#3162FF"/>
</svg>
