<svg width="24" height="24" viewBox="0 0 24 24" fill="none" xmlns="http://www.w3.org/2000/svg">
<path fill-rule="evenodd" clip-rule="evenodd" d="M8.21 4.84004C5.93227 4.84004 4.15999 6.61187 4.15999 8.86004C4.15999 10.2471 4.78176 11.5808 6.06361 13.1381C7.3552 14.7072 9.21942 16.3902 11.5523 18.4913L11.5549 18.4936L12.2625 19.1359L12.9679 18.5011L12.9695 18.4997C15.3018 16.394 17.165 14.7119 18.4564 13.1431C19.7379 11.5861 20.36 10.2524 20.36 8.86004C20.36 6.60306 18.5889 4.84004 16.31 4.84004C15.0124 4.84004 13.7582 5.44781 12.9425 6.39674C12.7711 6.59614 12.521 6.71061 12.258 6.71004C11.9951 6.70947 11.7455 6.59393 11.575 6.39379C10.7624 5.4403 9.51096 4.84004 8.21 4.84004ZM2.35999 8.86004C2.35999 5.60822 4.94772 3.04004 8.21 3.04004C9.71448 3.04004 11.1584 3.60204 12.2622 4.54374C13.3632 3.6092 14.8043 3.04004 16.31 3.04004C19.5711 3.04004 22.16 5.59703 22.16 8.86004C22.16 10.8477 21.2521 12.579 19.8461 14.287C18.4696 15.9593 16.5239 17.7159 14.2676 19.7528L12.8721 21.009C12.7068 21.1577 12.4923 21.24 12.27 21.24H12.25C12.0263 21.24 11.8107 21.1568 11.6451 21.0065L10.3477 19.8288L10.3451 19.8265L10.3169 19.801C8.03285 17.744 6.06353 15.9703 4.67386 14.282C3.26821 12.5743 2.35999 10.843 2.35999 8.86004Z" fill="#151515"/>
</svg>
