<svg width="24" height="24" viewBox="0 0 24 24" fill="none" xmlns="http://www.w3.org/2000/svg">
<path fill-rule="evenodd" clip-rule="evenodd" d="M3.09998 4.0001C3.09998 3.50304 3.50292 3.1001 3.99998 3.1001H20C20.497 3.1001 20.9 3.50304 20.9 4.0001V17.1388V17.1411V20.0001C20.9 20.4972 20.497 20.9001 20 20.9001H3.99998C3.50292 20.9001 3.09998 20.4972 3.09998 20.0001V17.1401V17.1399V4.0001ZM19.1 4.9001V14.9364L16.6426 12.43C16.4733 12.2573 16.2416 12.16 15.9998 12.16C15.7579 12.1601 15.5263 12.2575 15.3571 12.4302L13.5997 14.2242L10.2426 10.8C10.0734 10.6273 9.84181 10.5301 9.60005 10.53C9.3583 10.53 9.1267 10.6273 8.95742 10.7999L4.89998 14.937V4.9001H19.1ZM4.89998 19.1001V17.5077L9.59986 12.7155L12.9573 16.1401C13.1266 16.3128 13.3583 16.4101 13.6002 16.41C13.842 16.41 14.0737 16.3126 14.2429 16.1398L16.0002 14.3459L19.1 17.5076V19.1001H4.89998ZM16.14 9.14011C16.14 9.84703 15.5669 10.4201 14.86 10.4201C14.1531 10.4201 13.58 9.84703 13.58 9.14011C13.58 8.43318 14.1531 7.86011 14.86 7.86011C15.5669 7.86011 16.14 8.43318 16.14 9.14011Z" fill="#151515"/>
</svg>
