<svg width="24" height="24" viewBox="0 0 24 24" fill="none" xmlns="http://www.w3.org/2000/svg">
<path fill-rule="evenodd" clip-rule="evenodd" d="M8.89998 7.94004C8.89998 6.22796 10.2879 4.84004 12 4.84004C13.7121 4.84004 15.1 6.22796 15.1 7.94004C15.1 9.65212 13.7121 11.04 12 11.04C10.2879 11.04 8.89998 9.65212 8.89998 7.94004ZM12 3.04004C9.29378 3.04004 7.09998 5.23384 7.09998 7.94004C7.09998 10.6462 9.29378 12.84 12 12.84C14.7062 12.84 16.9 10.6462 16.9 7.94004C16.9 5.23384 14.7062 3.04004 12 3.04004ZM7.99998 14.0701C5.29292 14.0701 3.09998 16.263 3.09998 18.9701V19.9501C3.09998 20.4471 3.50292 20.8501 3.99998 20.8501C4.49703 20.8501 4.89998 20.4471 4.89998 19.9501V18.9701C4.89998 17.2571 6.28703 15.8701 7.99998 15.8701H14C14.497 15.8701 14.9 15.4671 14.9 14.9701C14.9 14.473 14.497 14.0701 14 14.0701H7.99998ZM18.6 13.8501C19.0971 13.8501 19.5 14.253 19.5 14.7501V16.45H21.21C21.707 16.45 22.11 16.8529 22.11 17.35C22.11 17.847 21.707 18.25 21.21 18.25H19.5V19.9501C19.5 20.4472 19.0971 20.8501 18.6 20.8501C18.103 20.8501 17.7 20.4472 17.7 19.9501V18.25H16C15.5029 18.25 15.1 17.847 15.1 17.35C15.1 16.8529 15.5029 16.45 16 16.45H17.7V14.7501C17.7 14.253 18.103 13.8501 18.6 13.8501Z" fill="#151515"/>
</svg>
