<svg width="24" height="24" viewBox="0 0 24 24" fill="none" xmlns="http://www.w3.org/2000/svg">
<path d="M7.54998 20.81H4.58997C3.72997 20.81 3.03998 20.11 3.03998 19.25V11.08C3.03998 10.22 3.73997 9.52002 4.58997 9.52002H7.54998" stroke="#151515" stroke-width="1.8" stroke-linejoin="round"/>
<path d="M11.63 4.37003L7.54999 9.53004V20.81H16.06C17.39 20.81 18.57 19.98 19.01 18.73L20.74 13.89C20.97 13.24 21.09 12.56 21.09 11.87V10.65C21.09 10.03 20.58 9.52004 19.96 9.52004H13.19L14.13 5.38004C14.24 4.92004 14.04 4.45004 13.64 4.21004L13.4 4.07004C12.82 3.73004 12.08 3.85003 11.64 4.37003H11.63Z" stroke="#151515" stroke-width="1.8" stroke-linejoin="round"/>
</svg>
